<?xml version="1.0" encoding="UTF-8" standalone="no"?>
<!DOCTYPE svg PUBLIC "-//W3C//DTD SVG 1.1//EN"
 "http://www.w3.org/Graphics/SVG/1.1/DTD/svg11.dtd">
<!-- Generated by graphviz version 12.2.0 (20241103.1931)
 -->
<!-- Pages: 1 -->
<svg width="3093pt" height="2814pt"
 viewBox="0.00 0.00 742.26 675.40" xmlns="http://www.w3.org/2000/svg" xmlns:xlink="http://www.w3.org/1999/xlink">
<g id="graph0" class="graph" transform="scale(4.16667 4.16667) rotate(0) translate(4 671.4)">
<polygon fill="white" stroke="none" points="-4,4 -4,-671.4 738.26,-671.4 738.26,4 -4,4"/>
<!-- node_0 -->
<g id="node1" class="node">
<title>node_0</title>
<ellipse fill="#f2f2f2" stroke="black" cx="68" cy="-638.41" rx="56.92" ry="28.99"/>
<text text-anchor="middle" x="68" y="-641.61" font-family="Times,serif" font-size="14.00">Uncensored</text>
<text text-anchor="middle" x="68" y="-625.11" font-family="Times,serif" font-size="14.00">(9 models)</text>
</g>
<!-- leaf_1 -->
<g id="node2" class="node">
<title>leaf_1</title>
<polygon fill="lightgreen" stroke="black" points="77,-551.17 23,-551.17 23,-515.17 77,-515.17 77,-551.17"/>
<text text-anchor="middle" x="50" y="-528.12" font-family="Times,serif" font-size="14.00">Grok</text>
</g>
<!-- node_0&#45;&gt;leaf_1 -->
<g id="edge1" class="edge">
<title>node_0&#45;&gt;leaf_1</title>
<path fill="none" stroke="black" d="M63.08,-609.2C60.58,-594.83 57.54,-577.4 55.02,-562.95"/>
<polygon fill="black" stroke="black" points="58.47,-562.4 53.31,-553.15 51.58,-563.6 58.47,-562.4"/>
<text text-anchor="middle" x="66.29" y="-581.91" font-family="Times,serif" font-size="10.00">yes</text>
</g>
<!-- node_2 -->
<g id="node3" class="node">
<title>node_2</title>
<ellipse fill="#f2f2f2" stroke="black" cx="181" cy="-533.17" rx="85.56" ry="28.99"/>
<text text-anchor="middle" x="181" y="-536.37" font-family="Times,serif" font-size="14.00">Can generate video</text>
<text text-anchor="middle" x="181" y="-519.87" font-family="Times,serif" font-size="14.00">(8 models)</text>
</g>
<!-- node_0&#45;&gt;node_2 -->
<g id="edge2" class="edge">
<title>node_0&#45;&gt;node_2</title>
<path fill="none" stroke="black" d="M95.07,-612.68C109.63,-599.37 127.82,-582.75 143.71,-568.24"/>
<polygon fill="black" stroke="black" points="145.64,-571.22 150.66,-561.89 140.92,-566.05 145.64,-571.22"/>
<text text-anchor="middle" x="133.14" y="-581.91" font-family="Times,serif" font-size="10.00">no</text>
</g>
<!-- leaf_3 -->
<g id="node4" class="node">
<title>leaf_3</title>
<polygon fill="lightgreen" stroke="black" points="54,-445.94 0,-445.94 0,-409.94 54,-409.94 54,-445.94"/>
<text text-anchor="middle" x="27" y="-422.89" font-family="Times,serif" font-size="14.00">Qwen</text>
</g>
<!-- node_2&#45;&gt;leaf_3 -->
<g id="edge3" class="edge">
<title>node_2&#45;&gt;leaf_3</title>
<path fill="none" stroke="black" d="M139.97,-507.32C116.99,-493.08 88.02,-474.58 63,-456.93 61.2,-455.66 59.38,-454.34 57.54,-453"/>
<polygon fill="black" stroke="black" points="59.76,-450.28 49.66,-447.06 55.54,-455.87 59.76,-450.28"/>
<text text-anchor="middle" x="111.24" y="-476.68" font-family="Times,serif" font-size="10.00">yes</text>
</g>
<!-- leaf_4 -->
<g id="node5" class="node">
<title>leaf_4</title>
<polygon fill="lightgreen" stroke="black" points="289.5,-456.69 72.5,-456.69 72.5,-399.19 289.5,-399.19 289.5,-456.69"/>
<text text-anchor="middle" x="181" y="-439.39" font-family="Times,serif" font-size="14.00">Undistinguished:</text>
<text text-anchor="middle" x="181" y="-422.89" font-family="Times,serif" font-size="14.00">ChatGPT, Gemini</text>
<text text-anchor="middle" x="181" y="-406.39" font-family="Times,serif" font-size="14.00">(No remaining features differentiate)</text>
</g>
<!-- node_2&#45;&gt;leaf_4 -->
<g id="edge4" class="edge">
<title>node_2&#45;&gt;leaf_4</title>
<path fill="none" stroke="black" d="M181,-503.69C181,-492.77 181,-480.11 181,-468.34"/>
<polygon fill="black" stroke="black" points="184.5,-468.49 181,-458.49 177.5,-468.49 184.5,-468.49"/>
<text text-anchor="middle" x="198.25" y="-476.68" font-family="Times,serif" font-size="10.00">partially</text>
</g>
<!-- node_5 -->
<g id="node6" class="node">
<title>node_5</title>
<ellipse fill="#f2f2f2" stroke="black" cx="399" cy="-427.94" rx="91.92" ry="28.99"/>
<text text-anchor="middle" x="399" y="-431.14" font-family="Times,serif" font-size="14.00">Can generate images</text>
<text text-anchor="middle" x="399" y="-414.64" font-family="Times,serif" font-size="14.00">(5 models)</text>
</g>
<!-- node_2&#45;&gt;node_5 -->
<g id="edge5" class="edge">
<title>node_2&#45;&gt;node_5</title>
<path fill="none" stroke="black" d="M229.92,-509C262.12,-493.76 304.48,-473.7 338.75,-457.47"/>
<polygon fill="black" stroke="black" points="340.2,-460.66 347.74,-453.21 337.2,-454.33 340.2,-460.66"/>
<text text-anchor="middle" x="301.79" y="-476.68" font-family="Times,serif" font-size="10.00">no</text>
</g>
<!-- leaf_6 -->
<g id="node7" class="node">
<title>leaf_6</title>
<polygon fill="lightgreen" stroke="black" points="381.88,-340.71 326.12,-340.71 326.12,-304.71 381.88,-304.71 381.88,-340.71"/>
<text text-anchor="middle" x="354" y="-317.66" font-family="Times,serif" font-size="14.00">Mistral</text>
</g>
<!-- node_5&#45;&gt;leaf_6 -->
<g id="edge6" class="edge">
<title>node_5&#45;&gt;leaf_6</title>
<path fill="none" stroke="black" d="M386.7,-398.73C380.32,-384.08 372.54,-366.23 366.17,-351.62"/>
<polygon fill="black" stroke="black" points="369.43,-350.35 362.23,-342.58 363.01,-353.14 369.43,-350.35"/>
<text text-anchor="middle" x="395.1" y="-371.45" font-family="Times,serif" font-size="10.00">partially</text>
</g>
<!-- node_7 -->
<g id="node8" class="node">
<title>node_7</title>
<ellipse fill="#f2f2f2" stroke="black" cx="475" cy="-322.71" rx="75.48" ry="28.99"/>
<text text-anchor="middle" x="475" y="-325.91" font-family="Times,serif" font-size="14.00">Research feature</text>
<text text-anchor="middle" x="475" y="-309.41" font-family="Times,serif" font-size="14.00">(4 models)</text>
</g>
<!-- node_5&#45;&gt;node_7 -->
<g id="edge7" class="edge">
<title>node_5&#45;&gt;node_7</title>
<path fill="none" stroke="black" d="M419.37,-399.28C428.21,-387.26 438.7,-373.02 448.16,-360.16"/>
<polygon fill="black" stroke="black" points="450.83,-362.44 453.94,-352.31 445.2,-358.29 450.83,-362.44"/>
<text text-anchor="middle" x="444.53" y="-371.45" font-family="Times,serif" font-size="10.00">no</text>
</g>
<!-- leaf_8 -->
<g id="node9" class="node">
<title>leaf_8</title>
<polygon fill="lightgreen" stroke="black" points="453.12,-235.47 398.88,-235.47 398.88,-199.47 453.12,-199.47 453.12,-235.47"/>
<text text-anchor="middle" x="426" y="-212.42" font-family="Times,serif" font-size="14.00">Claude</text>
</g>
<!-- node_7&#45;&gt;leaf_8 -->
<g id="edge8" class="edge">
<title>node_7&#45;&gt;leaf_8</title>
<path fill="none" stroke="black" d="M461.74,-293.77C454.67,-278.88 446.01,-260.62 438.98,-245.82"/>
<polygon fill="black" stroke="black" points="442.3,-244.64 434.85,-237.11 435.97,-247.65 442.3,-244.64"/>
<text text-anchor="middle" x="469.22" y="-266.22" font-family="Times,serif" font-size="10.00">partially</text>
</g>
<!-- node_9 -->
<g id="node10" class="node">
<title>node_9</title>
<ellipse fill="#f2f2f2" stroke="black" cx="563" cy="-217.47" rx="91.39" ry="28.99"/>
<text text-anchor="middle" x="563" y="-220.67" font-family="Times,serif" font-size="14.00">Has thinking version</text>
<text text-anchor="middle" x="563" y="-204.17" font-family="Times,serif" font-size="14.00">(3 models)</text>
</g>
<!-- node_7&#45;&gt;node_9 -->
<g id="edge9" class="edge">
<title>node_7&#45;&gt;node_9</title>
<path fill="none" stroke="black" d="M497.89,-294.85C508.42,-282.5 521.06,-267.68 532.39,-254.38"/>
<polygon fill="black" stroke="black" points="534.81,-256.94 538.63,-247.06 529.48,-252.4 534.81,-256.94"/>
<text text-anchor="middle" x="526.89" y="-266.22" font-family="Times,serif" font-size="10.00">no</text>
</g>
<!-- leaf_10 -->
<g id="node11" class="node">
<title>leaf_10</title>
<polygon fill="lightgreen" stroke="black" points="555.38,-130.24 484.62,-130.24 484.62,-94.24 555.38,-94.24 555.38,-130.24"/>
<text text-anchor="middle" x="520" y="-107.19" font-family="Times,serif" font-size="14.00">DeepSeek</text>
</g>
<!-- node_9&#45;&gt;leaf_10 -->
<g id="edge10" class="edge">
<title>node_9&#45;&gt;leaf_10</title>
<path fill="none" stroke="black" d="M551.25,-188.27C545.15,-173.61 537.71,-155.77 531.63,-141.16"/>
<polygon fill="black" stroke="black" points="534.94,-140.01 527.86,-132.12 528.48,-142.7 534.94,-140.01"/>
<text text-anchor="middle" x="549.54" y="-160.98" font-family="Times,serif" font-size="10.00">yes</text>
</g>
<!-- node_11 -->
<g id="node12" class="node">
<title>node_11</title>
<ellipse fill="#f2f2f2" stroke="black" cx="654" cy="-112.24" rx="80.26" ry="28.99"/>
<text text-anchor="middle" x="654" y="-115.44" font-family="Times,serif" font-size="14.00">Can search online</text>
<text text-anchor="middle" x="654" y="-98.94" font-family="Times,serif" font-size="14.00">(2 models)</text>
</g>
<!-- node_9&#45;&gt;node_11 -->
<g id="edge11" class="edge">
<title>node_9&#45;&gt;node_11</title>
<path fill="none" stroke="black" d="M587.15,-189.08C598.03,-176.73 611.03,-161.99 622.65,-148.81"/>
<polygon fill="black" stroke="black" points="625.07,-151.36 629.05,-141.54 619.82,-146.73 625.07,-151.36"/>
<text text-anchor="middle" x="616.48" y="-160.98" font-family="Times,serif" font-size="10.00">no</text>
</g>
<!-- leaf_12 -->
<g id="node13" class="node">
<title>leaf_12</title>
<polygon fill="lightgreen" stroke="black" points="643,-36 589,-36 589,0 643,0 643,-36"/>
<text text-anchor="middle" x="616" y="-12.95" font-family="Times,serif" font-size="14.00">Llama</text>
</g>
<!-- node_11&#45;&gt;leaf_12 -->
<g id="edge12" class="edge">
<title>node_11&#45;&gt;leaf_12</title>
<path fill="none" stroke="black" d="M642.15,-83.55C639.61,-77.53 636.94,-71.18 634.5,-65.25 632.03,-59.25 629.42,-52.8 626.96,-46.67"/>
<polygon fill="black" stroke="black" points="630.29,-45.56 623.33,-37.57 623.79,-48.16 630.29,-45.56"/>
<text text-anchor="middle" x="651.75" y="-55.75" font-family="Times,serif" font-size="10.00">partially</text>
</g>
<!-- leaf_13 -->
<g id="node14" class="node">
<title>leaf_13</title>
<polygon fill="lightgreen" stroke="black" points="721.12,-36 660.88,-36 660.88,0 721.12,0 721.12,-36"/>
<text text-anchor="middle" x="691" y="-12.95" font-family="Times,serif" font-size="14.00">Gemma</text>
</g>
<!-- node_11&#45;&gt;leaf_13 -->
<g id="edge13" class="edge">
<title>node_11&#45;&gt;leaf_13</title>
<path fill="none" stroke="black" d="M665.3,-83.06C669.94,-71.5 675.29,-58.16 679.91,-46.65"/>
<polygon fill="black" stroke="black" points="683.02,-48.28 683.5,-37.7 676.53,-45.68 683.02,-48.28"/>
<text text-anchor="middle" x="682.15" y="-55.75" font-family="Times,serif" font-size="10.00">no</text>
</g>
</g>
</svg>
